<mxfile host="app.diagrams.net" agent="Mozilla/5.0 (Macintosh; Intel Mac OS X 10_15_7) AppleWebKit/537.36 (KHTML, like Gecko) Chrome/138.0.0.0 Safari/537.36" version="27.2.0">
  <diagram name="Page-1" id="NXh5VoP_QyrCzJBLFTyu">
    <mxGraphModel dx="987" dy="659" grid="1" gridSize="10" guides="1" tooltips="1" connect="1" arrows="1" fold="1" page="1" pageScale="1" pageWidth="850" pageHeight="1100" math="0" shadow="0">
      <root>
        <mxCell id="0" />
        <mxCell id="1" parent="0" />
        <mxCell id="UP1QU7ZoZCgHfaLR7rlM-2" value="VPC" style="points=[[0,0],[0.25,0],[0.5,0],[0.75,0],[1,0],[1,0.25],[1,0.5],[1,0.75],[1,1],[0.75,1],[0.5,1],[0.25,1],[0,1],[0,0.75],[0,0.5],[0,0.25]];outlineConnect=0;gradientColor=none;html=1;whiteSpace=wrap;fontSize=12;fontStyle=0;container=1;pointerEvents=0;collapsible=0;recursiveResize=0;shape=mxgraph.aws4.group;grIcon=mxgraph.aws4.group_vpc2;strokeColor=#8C4FFF;fillColor=none;verticalAlign=top;align=left;spacingLeft=30;fontColor=#AAB7B8;dashed=0;" vertex="1" parent="1">
          <mxGeometry x="180" y="120" width="510" height="420" as="geometry" />
        </mxCell>
        <mxCell id="UP1QU7ZoZCgHfaLR7rlM-7" value="Region" style="points=[[0,0],[0.25,0],[0.5,0],[0.75,0],[1,0],[1,0.25],[1,0.5],[1,0.75],[1,1],[0.75,1],[0.5,1],[0.25,1],[0,1],[0,0.75],[0,0.5],[0,0.25]];outlineConnect=0;gradientColor=none;html=1;whiteSpace=wrap;fontSize=12;fontStyle=0;container=1;pointerEvents=0;collapsible=0;recursiveResize=0;shape=mxgraph.aws4.group;grIcon=mxgraph.aws4.group_region;strokeColor=#00A4A6;fillColor=none;verticalAlign=top;align=left;spacingLeft=30;fontColor=#147EBA;dashed=1;" vertex="1" parent="1">
          <mxGeometry x="60" y="90" width="750" height="470" as="geometry" />
        </mxCell>
        <mxCell id="UP1QU7ZoZCgHfaLR7rlM-30" value="Availability Zone" style="fillColor=none;strokeColor=#147EBA;dashed=1;verticalAlign=top;fontStyle=0;fontColor=#147EBA;whiteSpace=wrap;html=1;" vertex="1" parent="UP1QU7ZoZCgHfaLR7rlM-7">
          <mxGeometry x="149" y="260" width="460" height="170" as="geometry" />
        </mxCell>
        <mxCell id="UP1QU7ZoZCgHfaLR7rlM-28" value="Availability Zone" style="fillColor=none;strokeColor=#147EBA;dashed=1;verticalAlign=top;fontStyle=0;fontColor=#147EBA;whiteSpace=wrap;html=1;" vertex="1" parent="UP1QU7ZoZCgHfaLR7rlM-7">
          <mxGeometry x="149" y="70" width="460" height="160" as="geometry" />
        </mxCell>
        <mxCell id="UP1QU7ZoZCgHfaLR7rlM-9" value="Lambda" style="sketch=0;outlineConnect=0;fontColor=#232F3E;gradientColor=none;fillColor=#ED7100;strokeColor=none;dashed=0;verticalLabelPosition=bottom;verticalAlign=top;align=center;html=1;fontSize=12;fontStyle=0;aspect=fixed;pointerEvents=1;shape=mxgraph.aws4.lambda_function;" vertex="1" parent="UP1QU7ZoZCgHfaLR7rlM-7">
          <mxGeometry x="30" y="40" width="48" height="48" as="geometry" />
        </mxCell>
        <mxCell id="UP1QU7ZoZCgHfaLR7rlM-4" value="Private subnet" style="points=[[0,0],[0.25,0],[0.5,0],[0.75,0],[1,0],[1,0.25],[1,0.5],[1,0.75],[1,1],[0.75,1],[0.5,1],[0.25,1],[0,1],[0,0.75],[0,0.5],[0,0.25]];outlineConnect=0;gradientColor=none;html=1;whiteSpace=wrap;fontSize=12;fontStyle=0;container=1;pointerEvents=0;collapsible=0;recursiveResize=0;shape=mxgraph.aws4.group;grIcon=mxgraph.aws4.group_security_group;grStroke=0;strokeColor=#00A4A6;fillColor=#E6F6F7;verticalAlign=top;align=left;spacingLeft=30;fontColor=#147EBA;dashed=0;" vertex="1" parent="UP1QU7ZoZCgHfaLR7rlM-7">
          <mxGeometry x="159" y="99" width="190" height="121" as="geometry" />
        </mxCell>
        <mxCell id="UP1QU7ZoZCgHfaLR7rlM-14" value="Private subnet" style="points=[[0,0],[0.25,0],[0.5,0],[0.75,0],[1,0],[1,0.25],[1,0.5],[1,0.75],[1,1],[0.75,1],[0.5,1],[0.25,1],[0,1],[0,0.75],[0,0.5],[0,0.25]];outlineConnect=0;gradientColor=none;html=1;whiteSpace=wrap;fontSize=12;fontStyle=0;container=1;pointerEvents=0;collapsible=0;recursiveResize=0;shape=mxgraph.aws4.group;grIcon=mxgraph.aws4.group_security_group;grStroke=0;strokeColor=#00A4A6;fillColor=#E6F6F7;verticalAlign=top;align=left;spacingLeft=30;fontColor=#147EBA;dashed=0;" vertex="1" parent="UP1QU7ZoZCgHfaLR7rlM-7">
          <mxGeometry x="159" y="290" width="190" height="130" as="geometry" />
        </mxCell>
        <mxCell id="UP1QU7ZoZCgHfaLR7rlM-15" value="Instance" style="sketch=0;outlineConnect=0;fontColor=#232F3E;gradientColor=none;fillColor=#ED7100;strokeColor=none;dashed=0;verticalLabelPosition=bottom;verticalAlign=top;align=center;html=1;fontSize=12;fontStyle=0;aspect=fixed;pointerEvents=1;shape=mxgraph.aws4.ec2_m1_mac_instance;" vertex="1" parent="UP1QU7ZoZCgHfaLR7rlM-14">
          <mxGeometry x="120" y="41" width="48" height="48" as="geometry" />
        </mxCell>
        <mxCell id="UP1QU7ZoZCgHfaLR7rlM-16" value="Elastic Network&lt;br&gt;Interface" style="sketch=0;outlineConnect=0;fontColor=#232F3E;gradientColor=none;fillColor=#8C4FFF;strokeColor=none;dashed=0;verticalLabelPosition=bottom;verticalAlign=top;align=center;html=1;fontSize=12;fontStyle=0;aspect=fixed;pointerEvents=1;shape=mxgraph.aws4.elastic_network_interface;" vertex="1" parent="UP1QU7ZoZCgHfaLR7rlM-14">
          <mxGeometry x="30" y="41" width="49" height="49" as="geometry" />
        </mxCell>
        <mxCell id="UP1QU7ZoZCgHfaLR7rlM-20" style="edgeStyle=orthogonalEdgeStyle;rounded=0;orthogonalLoop=1;jettySize=auto;html=1;" edge="1" parent="UP1QU7ZoZCgHfaLR7rlM-7" target="UP1QU7ZoZCgHfaLR7rlM-16">
          <mxGeometry relative="1" as="geometry">
            <mxPoint x="53" y="120" as="sourcePoint" />
            <Array as="points">
              <mxPoint x="53" y="356" />
            </Array>
          </mxGeometry>
        </mxCell>
        <mxCell id="UP1QU7ZoZCgHfaLR7rlM-22" style="edgeStyle=orthogonalEdgeStyle;rounded=0;orthogonalLoop=1;jettySize=auto;html=1;" edge="1" parent="UP1QU7ZoZCgHfaLR7rlM-7" target="UP1QU7ZoZCgHfaLR7rlM-12">
          <mxGeometry relative="1" as="geometry">
            <mxPoint x="53" y="110" as="sourcePoint" />
            <Array as="points">
              <mxPoint x="53" y="155" />
            </Array>
          </mxGeometry>
        </mxCell>
        <mxCell id="UP1QU7ZoZCgHfaLR7rlM-5" value="Public subnet" style="points=[[0,0],[0.25,0],[0.5,0],[0.75,0],[1,0],[1,0.25],[1,0.5],[1,0.75],[1,1],[0.75,1],[0.5,1],[0.25,1],[0,1],[0,0.75],[0,0.5],[0,0.25]];outlineConnect=0;gradientColor=none;html=1;whiteSpace=wrap;fontSize=12;fontStyle=0;container=1;pointerEvents=0;collapsible=0;recursiveResize=0;shape=mxgraph.aws4.group;grIcon=mxgraph.aws4.group_security_group;grStroke=0;strokeColor=#7AA116;fillColor=#F2F6E8;verticalAlign=top;align=left;spacingLeft=30;fontColor=#248814;dashed=0;" vertex="1" parent="UP1QU7ZoZCgHfaLR7rlM-7">
          <mxGeometry x="399" y="99" width="190" height="121" as="geometry" />
        </mxCell>
        <mxCell id="UP1QU7ZoZCgHfaLR7rlM-17" value="Public subnet" style="points=[[0,0],[0.25,0],[0.5,0],[0.75,0],[1,0],[1,0.25],[1,0.5],[1,0.75],[1,1],[0.75,1],[0.5,1],[0.25,1],[0,1],[0,0.75],[0,0.5],[0,0.25]];outlineConnect=0;gradientColor=none;html=1;whiteSpace=wrap;fontSize=12;fontStyle=0;container=1;pointerEvents=0;collapsible=0;recursiveResize=0;shape=mxgraph.aws4.group;grIcon=mxgraph.aws4.group_security_group;grStroke=0;strokeColor=#7AA116;fillColor=#F2F6E8;verticalAlign=top;align=left;spacingLeft=30;fontColor=#248814;dashed=0;" vertex="1" parent="UP1QU7ZoZCgHfaLR7rlM-7">
          <mxGeometry x="399" y="290" width="190" height="130" as="geometry" />
        </mxCell>
        <mxCell id="UP1QU7ZoZCgHfaLR7rlM-21" style="edgeStyle=orthogonalEdgeStyle;rounded=0;orthogonalLoop=1;jettySize=auto;html=1;exitX=0.5;exitY=1;exitDx=0;exitDy=0;" edge="1" parent="UP1QU7ZoZCgHfaLR7rlM-7">
          <mxGeometry relative="1" as="geometry">
            <mxPoint x="389" y="410" as="sourcePoint" />
            <mxPoint x="389" y="410" as="targetPoint" />
          </mxGeometry>
        </mxCell>
        <mxCell id="UP1QU7ZoZCgHfaLR7rlM-26" value="Internet&lt;br&gt;Gateway" style="sketch=0;outlineConnect=0;fontColor=#232F3E;gradientColor=none;fillColor=#8C4FFF;strokeColor=none;dashed=0;verticalLabelPosition=bottom;verticalAlign=top;align=center;html=1;fontSize=12;fontStyle=0;aspect=fixed;pointerEvents=1;shape=mxgraph.aws4.internet_gateway;" vertex="1" parent="UP1QU7ZoZCgHfaLR7rlM-7">
          <mxGeometry x="669" y="210" width="52" height="52" as="geometry" />
        </mxCell>
        <mxCell id="UP1QU7ZoZCgHfaLR7rlM-27" style="edgeStyle=orthogonalEdgeStyle;rounded=0;orthogonalLoop=1;jettySize=auto;html=1;" edge="1" parent="UP1QU7ZoZCgHfaLR7rlM-7" source="UP1QU7ZoZCgHfaLR7rlM-13" target="UP1QU7ZoZCgHfaLR7rlM-26">
          <mxGeometry relative="1" as="geometry" />
        </mxCell>
        <mxCell id="UP1QU7ZoZCgHfaLR7rlM-11" value="Instance" style="sketch=0;outlineConnect=0;fontColor=#232F3E;gradientColor=none;fillColor=#ED7100;strokeColor=none;dashed=0;verticalLabelPosition=bottom;verticalAlign=top;align=center;html=1;fontSize=12;fontStyle=0;aspect=fixed;pointerEvents=1;shape=mxgraph.aws4.ec2_m1_mac_instance;" vertex="1" parent="UP1QU7ZoZCgHfaLR7rlM-7">
          <mxGeometry x="279" y="130" width="48" height="48" as="geometry" />
        </mxCell>
        <mxCell id="UP1QU7ZoZCgHfaLR7rlM-12" value="Elastic Network&lt;br&gt;Interface" style="sketch=0;outlineConnect=0;fontColor=#232F3E;gradientColor=none;fillColor=#8C4FFF;strokeColor=none;dashed=0;verticalLabelPosition=bottom;verticalAlign=top;align=center;html=1;fontSize=12;fontStyle=0;aspect=fixed;pointerEvents=1;shape=mxgraph.aws4.elastic_network_interface;" vertex="1" parent="UP1QU7ZoZCgHfaLR7rlM-7">
          <mxGeometry x="189" y="130" width="49" height="49" as="geometry" />
        </mxCell>
        <mxCell id="UP1QU7ZoZCgHfaLR7rlM-13" value="NAT Gateway" style="sketch=0;outlineConnect=0;fontColor=#232F3E;gradientColor=none;fillColor=#8C4FFF;strokeColor=none;dashed=0;verticalLabelPosition=bottom;verticalAlign=top;align=center;html=1;fontSize=12;fontStyle=0;aspect=fixed;pointerEvents=1;shape=mxgraph.aws4.nat_gateway;" vertex="1" parent="UP1QU7ZoZCgHfaLR7rlM-7">
          <mxGeometry x="509" y="130" width="48" height="48" as="geometry" />
        </mxCell>
        <mxCell id="UP1QU7ZoZCgHfaLR7rlM-24" style="edgeStyle=orthogonalEdgeStyle;rounded=0;orthogonalLoop=1;jettySize=auto;html=1;" edge="1" parent="UP1QU7ZoZCgHfaLR7rlM-7" target="UP1QU7ZoZCgHfaLR7rlM-13">
          <mxGeometry relative="1" as="geometry">
            <mxPoint x="349" y="154.03999999999996" as="sourcePoint" />
            <Array as="points">
              <mxPoint x="389" y="154" />
              <mxPoint x="389" y="154" />
            </Array>
          </mxGeometry>
        </mxCell>
        <mxCell id="UP1QU7ZoZCgHfaLR7rlM-32" style="edgeStyle=orthogonalEdgeStyle;rounded=0;orthogonalLoop=1;jettySize=auto;html=1;" edge="1" parent="UP1QU7ZoZCgHfaLR7rlM-7" source="UP1QU7ZoZCgHfaLR7rlM-15">
          <mxGeometry relative="1" as="geometry">
            <mxPoint x="533" y="200" as="targetPoint" />
          </mxGeometry>
        </mxCell>
      </root>
    </mxGraphModel>
  </diagram>
</mxfile>
